<svg xmlns="http://www.w3.org/2000/svg" width="18" height="18" viewBox="0 0 18 18"> <path style="fill:none;stroke:none;stroke-width:1px;stroke-linecap:butt;stroke-linejoin:miter;stroke-opacity:1;fill-rule:nonzero" d="M 16,5.5 12.5,9 16,12.5 z" /> <path style="fill:none;stroke:#000000;stroke-width:2;stroke-linecap:square;stroke-linejoin:miter;stroke-opacity:0.50196081;stroke-miterlimit:4;stroke-dasharray:none" d="m 15.5,2.5 c -14,0 -13,0 -13,0 l 0,13" /> <path d="m 6.5,14.5 c 10,0 9,0 9,0" style="fill:none;stroke:#000000;stroke-width:2;stroke-linecap:square;stroke-linejoin:miter;stroke-miterlimit:4;stroke-opacity:0.50196081;stroke-dasharray:none"/> <path style="fill:none;stroke:#000000;stroke-width:2;stroke-linecap:square;stroke-linejoin:miter;stroke-miterlimit:4;stroke-opacity:0.50196078;stroke-dasharray:none" d="m 9,10 c 10,0 6.5,0 6.5,0"/> <path style="fill:#000000;fill-opacity:1;stroke:#ffffff;stroke-width:0.5;stroke-linecap:butt;stroke-linejoin:miter;stroke-miterlimit:4;stroke-opacity:1;stroke-dasharray:none" d="M 9 3 C 7 3 5 5 5 7 C 5 8.1331878 5.4944498 9.0940909 6.09375 9.90625 C 4.2247342 11.736073 6.3209481 11.750998 7.625 11.625 C 9.4559533 13.372886 13.5 15.5 13.5 15.5 C 13.5 15.5 13.134898 12.287173 13.03125 10.71875 C 14.233828 10.363035 15.739596 9.685859 13.21875 8.75 C 13.349978 8.2958135 13.5 7.7895642 13.5 7 C 13.5 5 11 3 9 3 z " /> <path style="fill:#ffffff;fill-opacity:1;fill-rule:nonzero;stroke:#ffffff;stroke-width:0.5;stroke-linecap:square;stroke-miterlimit:4;stroke-opacity:1;stroke-dasharray:none" d="m 8.5,6.75 a 0.5,0.25 0 1 1 -1,0 0.5,0.25 0 1 1 1,0 z" transform="translate(-0.5,-0.75)" /> <path d="m 8.5,6.75 a 0.5,0.25 0 1 1 -1,0 0.5,0.25 0 1 1 1,0 z" style="fill:#ffffff;fill-opacity:1;fill-rule:nonzero;stroke:#ffffff;stroke-width:0.5;stroke-linecap:square;stroke-miterlimit:4;stroke-opacity:1;stroke-dasharray:none" transform="translate(2.5,-0.5)" /> <path style="fill:#ffffff;fill-opacity:1;fill-rule:nonzero;stroke:#ffffff;stroke-width:0.5;stroke-linecap:square;stroke-miterlimit:4;stroke-opacity:1;stroke-dasharray:none" d="M 9,9 A 0.25,0.5 0 0 1 8.9308389,9.3452379 L 8.75,9 z" transform="matrix(3,0,0,1,-17,0)" /> </svg>