<svg xmlns="http://www.w3.org/2000/svg" width="18" height="18" viewBox="0 0 18 18"><path d="M 11,1.75 C 9.8,1.75 8.675,2.2544118 7.85,2.975 8.45,3.1191176 8.975,3.3352941 9.425,3.6235294 9.875,3.3352941 10.4,3.1911765 11,3.1911765 c 1.65,0 3,1.2970588 3,2.8823529 v 3.6029412 c 0,1.5852944 -1.35,2.8823534 -3,2.8823534 -1.65,0 -3,-1.297059 -3,-2.8823534 V 7.1544118 C 7.625,6.7220588 7.1,6.4338235 6.5,6.4338235 V 9.6764706 C 6.5,12.054412 8.525,14 11,14 c 2.475,0 4.5,-1.945588 4.5,-4.3235294 V 6.0735294 C 15.5,3.6955882 13.475,1.75 11,1.75 z"/> <path d="m 6.5,16.161765 c 1.2,0 2.325,-0.504412 3.15,-1.225 -0.6,-0.144118 -1.125,-0.360294 -1.575,-0.64853 -0.45,0.288236 -0.975,0.432353 -1.575,0.432353 -1.65,0 -3,-1.297059 -3,-2.882353 V 8.2352941 C 3.5,6.65 4.85,5.3529412 6.5,5.3529412 c 1.65,0 3,1.2970588 3,2.8823529 v 2.5220589 c 0.375,0.432353 0.9,0.720588 1.5,0.720588 V 8.2352941 C 11,5.8573529 8.975,3.9117647 6.5,3.9117647 4.025,3.9117647 2,5.8573529 2,8.2352941 v 3.6029409 c 0,2.377941 2.025,4.32353 4.5,4.32353 z"/> </svg>