<svg xmlns="http://www.w3.org/2000/svg" width="18" height="18" viewBox="0 0 18 18"><path d="m 10.936089,1.8927186 0.132989,1.4243861 c 1.462877,-0.1424386 2.726271,0.9970702 2.925754,2.5638949 l 0.332472,3.5609651 c 0.132989,1.5668243 -0.930921,2.9199913 -2.393798,3.1336493 -1.462877,0.142439 -2.7262711,-0.99707 -2.9257543,-2.563895 L 7.6778636,10.154158 C 7.8773468,12.504395 9.8056846,14.213658 12,14 14.194315,13.786342 15.790181,11.720982 15.590698,9.3707454 L 15.258226,5.8097803 C 15.058743,3.388324 13.130405,1.6790607 10.936089,1.8927186 z"/> <path d="M 6.9464251,16.136579 6.8134363,14.712193 C 5.3505594,14.854632 4.0871656,13.715123 3.9541768,12.148298 L 3.6881992,8.587333 C 3.488716,7.0205084 4.6191209,5.6673417 6.0819978,5.5249031 7.5448748,5.3824645 8.8082685,6.5219733 8.9412573,8.0887979 L 10.271145,7.9463593 C 10.071662,5.5961224 8.1433244,3.8868591 5.949009,4.100517 3.7546936,4.3141749 2.0923334,6.3795347 2.2918167,8.7297716 l 0.2659776,3.5609654 c 0.2659776,2.350237 2.1943154,4.0595 4.3886308,3.845842 z"/> </svg>